<svg width="45" height="45" viewBox="0 0 45 45" fill="none" xmlns="http://www.w3.org/2000/svg">
<circle cx="22.5" cy="22.5" r="22.5" fill="#0090FF"/>
<path d="M13.8791 26.4963C13.966 26.6495 14.1087 26.7659 14.2761 26.8272L15.982 27.4461C16.2363 27.538 16.5092 27.5441 16.7698 27.4645L17.1171 27.3542C17.3963 27.2684 17.632 27.0907 17.787 26.8456L19.7844 23.7696C20.0139 23.4203 19.9271 22.9485 19.5859 22.7034L19.437 22.5931C19.3068 22.5012 19.1579 22.4522 18.9966 22.4522H16.869C16.379 22.4522 15.9199 22.6973 15.647 23.1017L13.904 25.6936C13.7489 25.9387 13.7365 26.2451 13.8791 26.4963ZM21.36 21.9498C21.6887 21.9498 21.9617 21.6801 21.9617 21.3493C21.9617 21.0184 21.6949 20.7488 21.36 20.7488C21.0312 20.7488 20.7583 21.0184 20.7583 21.3493C20.7583 21.6801 21.0312 21.9498 21.36 21.9498ZM24.5049 20.9571C24.5049 21.0858 24.6104 21.1961 24.7406 21.1961H26.4465C26.5767 21.1961 26.6822 21.0919 26.6822 20.9571V19.4007C26.6822 19.2721 26.5767 19.1618 26.4465 19.1618H24.7406C24.6104 19.1618 24.5049 19.2659 24.5049 19.4007V20.9571ZM7.19229 19.6091L8.40808 18.3958C8.53214 18.2733 8.62519 18.2855 8.80508 18.2855H12.6696C12.6447 18.2978 12.6944 18.2855 12.6696 18.2855L13.1658 17.9975C13.234 17.9608 13.3147 17.9363 13.3953 17.9363H15.3431C16.1867 17.9363 17.0117 17.777 17.7933 17.4645L19.7782 16.6679C20.0201 16.5699 20.2745 16.5208 20.5288 16.5208H21.9493C21.9803 16.5208 22.0051 16.5086 22.0237 16.4902L22.3897 16.1225C22.4703 16.0429 22.582 16 22.6936 16H23.345C23.4814 16 23.6241 16.0429 23.7357 16.1287L24.3622 16.5882C24.4181 16.6311 24.4863 16.6556 24.5607 16.6556H25.8758C25.944 16.6556 26.0122 16.6434 26.0805 16.6189L27.6871 16.0368C27.7553 16.0123 27.8235 16 27.9042 16L32.7984 16.0306C33.0527 16.0306 33.2946 16.1409 33.4621 16.3309L34.5724 17.5993C34.7399 17.7892 34.864 18.0221 34.9322 18.2733L35.9743 22.3848C36.0177 22.5502 36.0053 22.7218 35.9433 22.8873L35.2547 24.6949C35.1617 24.9399 34.9508 25.1299 34.6965 25.1973L28.3322 26.864C28.2639 26.8824 28.1895 26.8885 28.1151 26.8885C27.8545 26.8885 27.6064 26.7659 27.4513 26.5637L26.0247 24.7194C25.8634 24.511 25.8448 24.2292 25.9688 23.9963L26.4713 23.1017L26.3844 22.9485H24.1575C24.1327 22.9485 24.1141 22.9608 24.1079 22.973C24.1017 22.9792 24.0893 22.9975 24.0955 23.0282L24.1017 23.0466C24.1762 23.3897 24.3126 23.7145 24.4987 24.0147C24.5483 24.0944 24.5545 24.1924 24.5111 24.2782C24.4677 24.364 24.3871 24.4191 24.2878 24.4191L23.7854 24.4498L23.804 24.4988C23.835 24.5846 23.8226 24.6765 23.773 24.75C23.7233 24.8235 23.6365 24.8664 23.5497 24.8664C23.5435 24.8664 23.531 24.8664 23.5186 24.8664L23.2457 24.8358C23.2395 24.8358 23.2333 24.8358 23.2333 24.8358C23.1837 24.8358 23.134 24.8664 23.1092 24.9093L21.4034 28.0404C21.3662 28.1078 21.3662 28.1936 21.4034 28.261L21.726 28.8554C21.8066 28.9963 21.8066 29.174 21.7322 29.3211L21.1987 30.3811C21.1367 30.4975 21.0374 30.5895 20.9134 30.6324L19.9395 30.9694C19.8837 30.9877 19.8278 31 19.772 31C19.7038 31 19.6418 30.9877 19.5797 30.9571L15.9447 29.4252C15.8021 29.364 15.709 29.223 15.709 29.0699V29.0331C15.709 29.0024 15.6904 28.9779 15.6656 28.9718L11.156 27.2132C11.0382 27.1642 10.9637 27.0539 10.9637 26.9314V26.864L10.8645 26.8456L10.7156 26.9988C10.666 27.0478 10.604 27.0784 10.5419 27.0846L7.84981 27.3113H7.84361C7.66372 27.3113 7.49004 27.2377 7.36598 27.1152L7.19849 26.9498C7.06823 26.8211 7 26.6495 7 26.4718V20.0748C7 19.8971 7.06823 19.7316 7.19229 19.6091Z" fill="white"/>
</svg>
