<svg width="182" height="30" viewBox="0 0 182 30" fill="none" xmlns="http://www.w3.org/2000/svg">
<path d="M171.97 20.2612C171.33 19.6108 170.817 18.8792 170.444 18.0225C170.07 17.1658 169.874 16.2715 169.874 15.3273C169.874 14.3643 170.07 13.4575 170.444 12.5946C170.817 11.7566 171.33 11.0187 171.97 10.3871C172.628 9.73677 173.369 9.24901 174.237 8.88006C175.085 8.51111 176.01 8.31726 176.985 8.31726C177.96 8.31726 178.878 8.49235 179.733 8.8613C180.582 9.23025 181.348 9.73677 182 10.3809L180.316 12.0067C179.378 11.0937 178.258 10.6623 176.985 10.6623C176.326 10.6623 175.712 10.7873 175.142 11.0125C174.56 11.2563 174.059 11.5878 173.635 12.0255C173.211 12.4445 172.875 12.9385 172.622 13.495C172.375 14.0703 172.248 14.6644 172.248 15.3148C172.248 15.9651 172.375 16.5592 172.622 17.1345C172.869 17.6973 173.205 18.1851 173.648 18.604C174.072 19.0418 174.572 19.3732 175.136 19.6171C175.718 19.8422 176.32 19.9673 176.979 19.9673L179.727 21.7682C178.878 22.1372 177.954 22.3123 176.979 22.3123C176.003 22.3123 175.085 22.1184 174.23 21.7495C173.369 21.393 172.628 20.8865 171.97 20.2612Z" fill="white"/>
<path d="M52.4463 8.31848V16.698L43.0303 8.31848V10.6697V11.8516V20.006L45.3859 22.3135V13.9465L54.8018 22.3135V22.2947V22.276V8.31848H52.4463Z" fill="white"/>
<path d="M151.161 8.31726V16.6968L141.739 8.31726V10.6685V11.8504V20.0048L144.095 22.3123V13.9453L153.511 22.3123V22.2935V22.2747V8.31726H151.161Z" fill="white"/>
<path d="M160.515 10.6653L162.87 8.32031V22.3091L160.515 20.0016V10.6653Z" fill="white"/>
<path d="M94.9359 8.31726H87.8819H87.635H80.5809L82.9175 10.6435H86.5775V13.4262V22.3123H88.933V13.4262V10.6435H92.5994L94.9359 8.31726Z" fill="white"/>
<path d="M61.812 14.1514V16.4776H64.7438H73.5772V14.1514H64.7438H61.812Z" fill="white"/>
<path d="M69.1129 8.31726H66.3078H61.8056L64.1422 10.6435H66.3078H69.1129H73.5771V8.31726H69.1129Z" fill="white"/>
<path d="M66.3078 19.9857H64.1422L61.8056 22.312H66.3078H69.1129H73.5771V19.9857H69.1129H66.3078Z" fill="white"/>
<path d="M112.255 16.6155C113.23 15.6775 113.724 14.5206 113.724 13.1824C113.724 11.8504 113.23 10.6998 112.261 9.74928C111.299 8.79877 110.127 8.31726 108.785 8.31726H108.361H101.946L104.283 10.6435H108.405H108.779C109.494 10.6435 110.089 10.8874 110.596 11.3877C111.102 11.8879 111.349 12.4757 111.349 13.1824C111.349 13.8953 111.102 14.4893 110.596 14.9896C110.102 15.4773 109.519 15.715 108.817 15.7212H104.276L101.94 18.0475H106.518L110.45 22.3123H113.711L109.684 17.9662C110.659 17.7911 111.52 17.3408 112.255 16.6155Z" fill="white"/>
<path fill-rule="evenodd" clip-rule="evenodd" d="M127.732 22.3185C131.6 22.3185 134.735 19.1828 134.735 15.3147C134.735 14.3812 134.553 13.4903 134.221 12.6759L132.371 14.7767C132.578 16.5701 131.729 18.3988 130.066 19.3589C128.403 20.3193 126.394 20.1398 124.945 19.0629L122.203 19.6148C123.484 21.2602 125.484 22.3185 127.732 22.3185ZM121.243 17.9551C120.911 17.1402 120.728 16.2488 120.728 15.3147C120.728 11.4466 123.864 8.31091 127.732 8.31091C129.979 8.31091 131.979 9.36937 133.261 11.015L130.518 11.5668C129.068 10.4906 127.06 10.3115 125.397 11.2716C123.734 12.232 122.885 14.0615 123.093 15.8554L121.243 17.9551Z" fill="white"/>
<path fill-rule="evenodd" clip-rule="evenodd" d="M14.2722 29.4855C22.1545 29.4855 28.5444 23.0956 28.5444 15.2132C28.5444 13.1542 28.1084 11.197 27.3236 9.4289L23.1346 14.1845C23.5307 17.6107 21.9088 21.1042 18.7318 22.9385C15.5538 24.7733 11.7161 24.4303 8.94671 22.3726L2.73913 23.6223C5.33499 27.1765 9.53395 29.4855 14.2722 29.4855ZM1.22109 20.9982C0.43614 19.23 0 17.2726 0 15.2132C0 7.33092 6.38988 0.94104 14.2722 0.94104C19.0099 0.94104 23.2084 3.24944 25.8043 6.80283L19.594 8.05222C16.8249 5.99631 12.9886 5.65416 9.81169 7.48837C6.63386 9.32309 5.01203 12.8179 5.40917 16.2449L1.22109 20.9982Z" fill="white"/>
</svg>
