<svg width="45" height="45" viewBox="0 0 45 45" fill="none" xmlns="http://www.w3.org/2000/svg">
<circle cx="22.5" cy="22.5" r="22.5" fill="#0090FF"/>
<path fill-rule="evenodd" clip-rule="evenodd" d="M29.1597 9.86128C30.2713 10.8066 31.9156 12.8371 32.3861 13.3076C32.3861 13.3076 32.0278 17.624 32.0966 18.4294C32.7091 19.007 34.0896 20.4225 34.1506 20.6006C34.2269 20.8231 32.7191 26.0499 32.5347 26.2374C32.4425 26.3312 31.7661 26.6252 31.0897 26.9192C30.4133 27.2132 29.7369 27.5073 29.6447 27.601C29.4603 27.7886 27.4319 29.8517 27.3969 30.1124C27.3619 30.3731 26.605 33.2438 26.3825 33.3201C26.3334 33.3369 26.0919 33.4438 25.7419 33.5988C24.5034 34.1471 21.9069 35.2967 21.674 35.1827C21.5744 35.1339 21.4543 35.106 21.3342 35.0781C21.094 35.0223 20.8538 34.9664 20.7775 34.7439C20.6859 34.4768 20.0124 33.7212 19.6871 33.3768L17.3028 32.9506C16.6489 33.3405 15.2814 34.0911 15.0423 33.9741C14.7435 33.8278 10.8599 28.3641 10.8599 28.3641C10.9776 27.8936 10.9771 27.9757 11.0706 27.7173C11.2872 27.1185 11.5811 26.3062 11.5523 25.9687C11.511 25.4854 9.56612 21.7658 9.56612 21.7658C9.6361 21.2444 10.8885 17.8649 11.1841 17.6392C11.3209 17.5349 11.735 17.3088 12.1589 17.0774C12.6518 16.8084 13.1579 16.5322 13.2571 16.4313C13.4046 16.2813 14.8892 14.4212 15.613 13.5099C15.9056 12.9122 16.1476 11.5282 16.1756 11.3196C16.2106 11.0589 18.9893 9.73346 19.2118 9.65717C19.3898 9.59615 20.0083 9.77655 20.5053 9.89634L23.9617 11.0213C24.6654 10.6557 26.095 9.91699 26.1841 9.88647L29.1597 9.86128ZM27.4487 18.6547L20.134 11.4629L11.4795 21.7658L18.3903 29.5935L27.4487 18.6547Z" fill="white"/>
</svg>
