<svg width="45" height="45" viewBox="0 0 45 45" fill="none" xmlns="http://www.w3.org/2000/svg">
<circle cx="22.5" cy="22.5" r="22.5" fill="#0090FF"/>
<path d="M31.1504 31.648L27.58 35.2184H22.524H17.4679L13.8975 31.648L10.3271 28.0776V23.0215V17.9654L13.8975 14.395L17.4679 10.8246H22.524H27.58L31.1504 14.395L34.7209 17.9654V23.0215V28.0776L31.1504 31.648ZM29.7606 10.4412C27.5321 9.17119 25.064 8.50024 22.5719 8.50024C21.3019 8.50024 20.0319 8.66798 18.7619 9.00345C14.9997 10.0099 11.8846 12.4061 9.94366 15.7369C8.00269 19.0677 7.49948 22.9736 8.50591 26.7357C9.51233 30.4978 11.9086 33.6129 15.2394 35.5539C18.5702 37.4948 22.476 37.998 26.2381 36.9916C30.0002 35.9852 33.1154 33.589 35.0563 30.2582C36.9973 26.9274 37.5005 23.0215 36.4941 19.2594C35.4877 15.4973 33.0914 12.3822 29.7606 10.4412Z" fill="white"/>
<path d="M22.4998 19.0677H24.1293L26.6933 12.8854H22.4998H18.3064L20.8704 19.0677H22.4998Z" fill="white"/>
<path d="M24.1293 26.9274H22.4998H20.8704L18.3064 33.1337H22.4998H26.6933L24.1293 26.9274Z" fill="white"/>
<path d="M32.6123 22.9975V18.8041L26.43 21.3681V22.9975V24.627L32.6123 27.1909H32.6363V22.9975H32.6123Z" fill="white"/>
<path d="M18.5703 22.9975V21.3681L12.388 18.8041L12.3641 18.828V22.9975H12.388V27.1909L18.5703 24.627V22.9975Z" fill="white"/>
</svg>
