<svg width="45" height="45" viewBox="0 0 45 45" fill="none" xmlns="http://www.w3.org/2000/svg">
<circle cx="22.5" cy="22.5" r="22.5" fill="#0090FF"/>
<path fill-rule="evenodd" clip-rule="evenodd" d="M6.29288 18.8755L7.09656 18.0718C7.2841 17.8843 7.53845 17.7789 7.80367 17.7789H13.7399C14.3608 17.7789 14.9733 17.6343 15.5287 17.3566L17.3132 16.4644C17.8686 16.1867 18.4811 16.0421 19.1021 16.0421H20.242V15H21.6315L22.728 16.0966C22.9156 16.2841 23.1699 16.3895 23.4351 16.3895H32.2661C32.7965 16.3895 33.3053 16.1788 33.6803 15.8037L34.1366 15.3474H35.5261V16.7368L36.6227 17.8334C36.8102 18.0209 36.9156 18.2753 36.9156 18.5405V19.5158H37.9998C38.552 19.5158 38.9998 19.9635 38.9998 20.5158V20.9473C38.9998 21.4996 38.552 21.9473 37.9998 21.9473H36.9156L35.5261 23.3368V23.7262C35.5261 24.2785 35.0784 24.7262 34.5261 24.7262H33.7893L33.0945 24.0315H28.3964C27.4216 24.0315 26.5076 24.5051 25.9455 25.3015L23.8688 28.2435C23.1193 29.3053 21.9006 29.9367 20.6009 29.9367H20.3308C19.8134 29.9367 19.3008 29.8363 18.8216 29.6411L10.1684 26.1157H7.99999C6.89542 26.1157 5.99999 25.2203 5.99999 24.1157V19.5826C5.99999 19.3174 6.10535 19.063 6.29288 18.8755ZM25.1474 17.779H24.0211C23.4688 17.779 23.0211 18.2267 23.0211 18.779V18.8632C23.0211 19.4154 23.4688 19.8632 24.0211 19.8632H25.1474C25.6997 19.8632 26.1474 19.4154 26.1474 18.8632V18.779C26.1474 18.2267 25.6997 17.779 25.1474 17.779ZM21.6821 22.3927L19.2044 26.1093C18.8471 26.6452 19.0822 27.3742 19.6853 27.6003L20.5413 27.9213C20.9764 28.0845 21.4666 27.9264 21.7244 27.5397L24.4162 23.502C24.8592 22.8375 24.3828 21.9474 23.5841 21.9474H22.5142C22.1798 21.9474 21.8676 22.1145 21.6821 22.3927ZM17.1697 21.2526H15.205C14.8787 21.2526 14.5729 21.4118 14.3857 21.6792L12.9488 23.7319C12.588 24.2473 12.787 24.9637 13.3619 25.2192L14.6399 25.7872C15.071 25.9788 15.5773 25.8431 15.8548 25.4616L17.8888 22.6648C18.0577 22.4325 18.1041 22.133 18.0133 21.8606C17.8922 21.4975 17.5525 21.2526 17.1697 21.2526Z" fill="white"/>
</svg>
