<svg width="45" height="45" viewBox="0 0 45 45" fill="none" xmlns="http://www.w3.org/2000/svg">
<circle cx="22.5" cy="22.5" r="22.5" fill="#0090FF"/>
<path d="M6.88223 23.8171C6.88223 24.15 7.2113 24.372 7.48772 24.2194L9.27787 23.2621C9.60694 23.0817 9.80438 22.7071 9.76489 22.3048L9.69908 21.6943C9.67275 21.4445 9.48848 21.2642 9.25154 21.2642L7.4219 21.2364C7.14548 21.2364 6.90855 21.4723 6.90855 21.7637L6.88223 23.8171ZM16.4121 26.5642L17.3599 26.9943C17.9785 27.2718 18.6893 27.022 19.0184 26.4116L20.4137 23.8726C20.5979 23.5534 20.3742 23.1372 20.0188 23.1372L18.1891 23.1095C18.0048 23.1095 17.8337 23.1927 17.7284 23.3592L16.1621 25.6762C15.9778 25.9676 16.0831 26.4116 16.4121 26.5642ZM21.7431 28.5205L22.6119 28.8396C22.8751 28.9367 23.1515 28.8257 23.2963 28.576L26.0079 23.7338C26.1263 23.5118 25.9815 23.2343 25.7446 23.2343L24.0071 23.2066C23.9281 23.2066 23.8623 23.2898 23.8755 23.3731L24.0598 24.4692C24.0729 24.5247 24.0203 24.5802 23.9676 24.5802H23.6517C23.6122 24.5802 23.5859 24.6218 23.5991 24.6634L23.6386 24.8021C23.6517 24.8438 23.6254 24.8854 23.5859 24.8854H23.2568C23.2305 24.8854 23.2042 24.8993 23.191 24.927L21.5193 27.8129C21.3482 28.0626 21.4667 28.4234 21.7431 28.5205ZM26.1 19.8906C26.1 19.7519 25.9947 19.627 25.8631 19.627L24.0861 19.5993C23.9545 19.5993 23.836 19.7102 23.836 19.8629L23.8228 21.0144C23.8228 21.1671 23.9281 21.278 24.0598 21.278L25.8368 21.3058C25.9684 21.3058 26.0868 21.1948 26.0868 21.0422L26.1 19.8906ZM22.0853 21.7082C21.8352 21.7082 21.6378 21.9163 21.6246 22.1799C21.6246 22.4435 21.8221 22.6655 22.0722 22.6655C22.3223 22.6655 22.5197 22.4574 22.5329 22.1938C22.5329 21.9301 22.3354 21.7082 22.0853 21.7082ZM27.1136 22.6377C27.2583 22.6377 27.39 22.5129 27.39 22.3603C27.39 22.2076 27.2715 22.0689 27.1267 22.0689C26.9819 22.0689 26.8503 22.1938 26.8503 22.3464C26.8503 22.499 26.9688 22.6239 27.1136 22.6377ZM39.9605 23.1927C39.9605 23.3315 39.8552 23.4425 39.7104 23.4425L37.9992 23.4147L37.0647 23.4008C37.0384 23.4008 36.9989 23.4147 36.9725 23.4425L36.3539 24.0391C36.2749 24.1223 36.1564 24.1778 36.038 24.1778H35.9458L35.9327 25.4404C35.9327 25.6901 35.7352 25.8843 35.5115 25.8843L34.906 25.8705C34.7349 25.8705 34.5637 25.7872 34.4453 25.6624L34.3795 25.593C34.3005 25.4959 34.182 25.4542 34.0504 25.4542L27.2583 25.9676C26.7976 26.0092 26.3633 26.259 26.1 26.6613L24.2046 29.4501C23.7833 30.0744 23.0199 30.3241 22.3354 30.0467L11.147 25.593C10.5942 25.371 10.0018 25.371 9.44899 25.5791L7.50089 26.3145C7.2113 26.4254 6.90855 26.4809 6.59264 26.4671L5.90817 26.4532C5.39482 26.4393 4.99994 25.9953 4.99994 25.4542L5.06575 20.7924C5.06575 20.6537 5.1184 20.5288 5.21054 20.4317L6.01347 19.6131C6.10561 19.516 6.23725 19.4605 6.35571 19.4605L15.2538 19.6131C15.3328 19.6131 15.4118 19.5854 15.4644 19.516L15.6092 19.3773C15.6882 19.294 15.8066 19.2524 15.912 19.2524L17.5178 19.2801C17.7416 19.2801 17.9654 19.2524 18.176 19.1691L20.7691 18.2534C20.9928 18.1702 21.2297 18.1286 21.4798 18.1424L23.0331 18.1702L23.0462 17.6291C23.0462 17.4903 23.1647 17.3655 23.2963 17.3655H23.4148C23.6122 17.3655 23.8097 17.4626 23.9545 17.6152L24.4678 18.1841C24.5468 18.2673 24.5863 18.3783 24.5731 18.4893V18.7529L31.1677 18.8639L31.4836 18.6974C31.8259 18.5171 32.1944 18.4338 32.5761 18.4338L34.4058 18.4616C34.5769 18.4616 34.748 18.4477 34.906 18.3922L35.2614 18.2812C35.4193 18.2257 35.5904 18.2118 35.7616 18.2118H35.9722L36.2091 17.865C36.2486 17.8095 36.3144 17.7678 36.3934 17.7678H36.7751C36.8804 17.7678 36.9594 17.865 36.9594 17.976V18.2396H37.0778C37.2226 18.2396 37.3411 18.3644 37.3411 18.5309V18.9749L37.8808 18.9888C37.9992 18.9888 38.0914 19.0998 38.0914 19.2246V19.627H38.1309C38.2625 19.627 38.3678 19.738 38.3678 19.8767L38.3546 20.515C38.3546 20.6537 38.2493 20.7647 38.1177 20.7647V20.9589C38.1177 21.0144 38.1572 21.0561 38.1967 21.0561L39.7762 21.0838C39.8947 21.0838 40 21.1948 40 21.3336L39.9605 23.1927Z" fill="white"/>
</svg>
