<svg width="45" height="45" viewBox="0 0 45 45" fill="none" xmlns="http://www.w3.org/2000/svg">
<circle cx="22.5" cy="22.5" r="22.5" fill="#0090FF"/>
<path fill-rule="evenodd" clip-rule="evenodd" d="M24.4858 27.6235L24.5162 27.587C25.0153 27.9857 25.3758 28.5071 25.5568 29.0964H31.4366L32.0915 28.7481C32.1254 28.727 32.1706 28.7164 32.2157 28.6953L31.9447 25.9404C31.9109 25.6132 31.9447 25.2965 32.0351 24.9904L35.7387 12.3769C35.7839 12.2502 35.8065 12.1236 35.8065 11.9969L35.9307 9.60086C35.9419 9.19976 35.6484 8.86199 35.2419 8.81977L34.8467 8.77755L34.8805 8.35534C34.9257 7.7748 34.4853 7.25759 33.8869 7.21537L31.256 7.00427C31.2235 7.00198 31.1912 7.00108 31.1593 7.00154C30.6282 7.02982 30.1909 7.44542 30.1394 7.97535L30.1055 8.32367L30.0483 8.31832L30.0478 8.32367L29.3703 8.26034C29.3575 8.25929 29.3447 8.25854 29.3321 8.25809C28.9872 8.27039 28.6874 8.50251 28.615 8.84088L27.2149 14.9946C27.1133 15.4274 26.8761 15.8285 26.5261 16.1135L23.8048 18.3512C23.4301 18.6638 22.9641 18.8167 22.5 18.8101C22.0359 18.8167 21.5699 18.6638 21.1952 18.3512L18.4739 16.1135C18.1239 15.8285 17.8867 15.4274 17.7851 14.9946L16.385 8.84088C16.3126 8.50251 16.0128 8.27039 15.6679 8.25809C15.6553 8.25854 15.6425 8.25929 15.6297 8.26034L14.9522 8.32367L14.9517 8.31832L14.8945 8.32367L14.8606 7.97535C14.8091 7.44542 14.3718 7.02982 13.8407 7.00154C13.8088 7.00108 13.7765 7.00198 13.744 7.00427L11.1131 7.21537C10.5147 7.25759 10.0743 7.7748 10.1195 8.35534L10.1533 8.77755L9.75812 8.81977C9.35163 8.86199 9.05805 9.19976 9.06934 9.60086L9.19355 11.9969C9.19355 12.1236 9.21614 12.2502 9.26131 12.3769L12.9649 24.9904C13.0553 25.2965 13.0891 25.6132 13.0553 25.9404L12.7843 28.6953C12.8294 28.7164 12.8746 28.727 12.9085 28.7481L13.5634 29.0964H19.4432C19.6242 28.5071 19.9847 27.9857 20.4838 27.587L20.5142 27.6235C20.538 27.604 20.5622 27.5848 20.5867 27.5659L20.8126 27.8509C20.3948 28.1781 20.0786 28.6109 19.9092 29.0964H20.7674C21.1739 29.0964 21.5578 29.2547 21.8401 29.5292L22.5 30.1737L23.1599 29.5292C23.4422 29.2547 23.8261 29.0964 24.2326 29.0964H25.0908C24.9214 28.6109 24.6052 28.1781 24.1874 27.8509L24.4133 27.5659C24.4378 27.5848 24.462 27.604 24.4858 27.6235ZM32.8607 8.81977L32.8043 8.81546L32.8029 8.81977L32.1141 8.767L31.8996 7.3737L31.958 7.37825L31.9573 7.3737L33.3123 7.47925L32.8607 8.81977ZM26.6503 28.5264L26.5828 28.4086L26.5361 28.3892L25.8134 27.2176L25.8925 26.3837C25.949 26.4348 26.0042 26.4871 26.0581 26.5406L26.0631 26.4998C26.718 27.1437 27.2036 27.967 27.4181 28.8853L26.6503 28.5264ZM23.308 25.761L22.5 25.7489L21.692 25.761L20.9919 25.2754C21.4549 25.1382 21.9517 25.0643 22.4598 25.0643C22.4732 25.0643 22.4866 25.0644 22.5 25.0644C22.5134 25.0644 22.5268 25.0643 22.5402 25.0643C23.0483 25.0643 23.5451 25.1382 24.0081 25.2754L23.308 25.761ZM23.5677 27.4498C23.5335 27.4366 23.499 27.4242 23.4643 27.4124L23.4535 27.4392C23.1503 27.3259 22.8268 27.2648 22.5 27.2593C22.1732 27.2648 21.8497 27.3259 21.5465 27.4392L21.5357 27.4124C21.501 27.4242 21.4665 27.4366 21.4323 27.4498L21.2968 27.112C21.5113 27.0276 21.7372 26.9643 21.963 26.9326C22.1424 26.9052 22.3218 26.8934 22.5 26.8963C22.6782 26.8934 22.8576 26.9052 23.037 26.9326C23.2628 26.9643 23.4887 27.0276 23.7032 27.112L23.5677 27.4498ZM18.4639 28.3892L18.4172 28.4086L18.3497 28.5264L17.5819 28.8853C17.7964 27.967 18.282 27.1437 18.9369 26.4998L18.9419 26.5406C18.9958 26.4871 19.051 26.4348 19.1075 26.3837L19.1866 27.2176L18.4639 28.3892ZM12.8859 8.767L12.1971 8.81977L12.1957 8.81546L12.1393 8.81977L11.6877 7.47925L13.0427 7.3737L13.042 7.37825L13.1004 7.3737L12.8859 8.767Z" fill="white"/>
<path fill-rule="evenodd" clip-rule="evenodd" d="M12.1393 8.81977L12.1957 8.81546L12.1971 8.81977L12.8859 8.767L13.1004 7.3737L13.042 7.37825L13.0427 7.3737L11.6877 7.47925L12.1393 8.81977ZM13.042 7.37825L12.8281 8.767L12.1957 8.81546L11.7454 7.47925L13.042 7.37825ZM20.4838 27.587C19.9847 27.9857 19.6242 28.5071 19.4432 29.0964H19.5253C19.708 28.5238 20.0441 28.0086 20.5142 27.6235L20.4838 27.587ZM21.4323 27.4498C21.4665 27.4366 21.501 27.4242 21.5357 27.4124L21.5465 27.4392C21.8497 27.3259 22.1732 27.2648 22.5 27.2593C22.8268 27.2648 23.1503 27.3259 23.4535 27.4392L23.4643 27.4124C23.499 27.4242 23.5335 27.4366 23.5677 27.4498L23.7032 27.112C23.4887 27.0276 23.2628 26.9643 23.037 26.9326C22.8576 26.9052 22.6782 26.8934 22.5 26.8963C22.3218 26.8934 22.1424 26.9052 21.963 26.9326C21.7372 26.9643 21.5113 27.0276 21.2968 27.112L21.4323 27.4498ZM22.5 26.8963C22.8715 26.9025 23.238 26.9731 23.589 27.1015L23.4643 27.4124C23.3038 27.3578 23.1383 27.3175 22.9805 27.2915C22.8209 27.2672 22.6601 27.2566 22.5 27.2593C22.3399 27.2566 22.1791 27.2672 22.0195 27.2915C21.8617 27.3175 21.6962 27.3578 21.5357 27.4124L21.411 27.1015C21.762 26.9731 22.1285 26.9025 22.5 26.8963ZM32.1141 8.767L32.8029 8.81977L32.8043 8.81546L32.8607 8.81977L33.3123 7.47925L31.9573 7.3737L31.958 7.37825L31.8996 7.3737L32.1141 8.767ZM32.1719 8.767L31.958 7.37825L33.2546 7.47925L32.8043 8.81546L32.1719 8.767ZM24.4858 27.6235C24.9559 28.0086 25.292 28.5238 25.4747 29.0964H25.5568C25.3758 28.5071 25.0153 27.9857 24.5162 27.587L24.4858 27.6235Z" fill="white"/>
<path fill-rule="evenodd" clip-rule="evenodd" d="M21.3234 32.9237C21.5379 33.0082 21.7637 33.0715 21.9896 33.1031C22.169 33.1305 22.3483 33.1424 22.5266 33.1394C22.7048 33.1424 22.8842 33.1305 23.0636 33.1032C23.2894 33.0715 23.5152 33.0082 23.7298 32.9237L23.5943 32.5859C23.5601 32.5991 23.5256 32.6116 23.4909 32.6234L23.4801 32.5965C23.1769 32.7099 22.8534 32.7709 22.5266 32.7764C22.1998 32.7709 21.8763 32.7099 21.5731 32.5965L21.5623 32.6234C21.5276 32.6116 21.493 32.5991 21.4589 32.5859L21.3234 32.9237ZM21.5623 32.6234C21.7228 32.6779 21.8882 32.7182 22.046 32.7443C22.2057 32.7686 22.3665 32.7792 22.5266 32.7764C22.6866 32.7792 22.8475 32.7686 23.0071 32.7443C23.1649 32.7182 23.3303 32.6779 23.4909 32.6234L23.6156 32.9343C23.2646 33.0627 22.8981 33.1332 22.5266 33.1394C22.1551 33.1332 21.7886 33.0627 21.4376 32.9343L21.5623 32.6234Z" fill="white"/>
<path fill-rule="evenodd" clip-rule="evenodd" d="M19.7426 30.4432C19.8442 31.1188 20.1942 31.731 20.7475 32.1637L20.5407 32.4122L20.5104 32.4487C20.0113 32.05 19.6508 31.5286 19.4698 30.9393C19.4256 30.7953 19.3921 30.6473 19.3699 30.496L19.7426 30.4432ZM22.5266 29.8621L20.9169 28.2899C20.8265 28.2055 20.7475 28.1 20.691 28.005C20.1942 28.4272 19.8668 28.9972 19.7651 29.6305L19.3925 29.5882V29.5777C19.5167 28.8177 19.9232 28.1422 20.533 27.6672C20.4991 27.53 20.4765 27.3928 20.4765 27.2555L20.4765 21.3446H12.2224L13.5209 24.0362C13.7467 24.4901 13.7806 25.0073 13.6451 25.4928L12.6289 28.9866C12.5724 29.1766 12.5498 29.3877 12.5724 29.5882L13.0128 34.1059C13.0467 34.4226 13.0128 34.7392 12.9225 35.0559L23.6156 38.0325L32.1307 35.0559C32.0404 34.7392 32.0065 34.4226 32.0404 34.1059L32.4807 29.5882C32.5033 29.3877 32.4807 29.1766 32.4243 28.9866L31.408 25.4928C31.2725 25.0073 31.3064 24.4901 31.5322 24.0362L32.8308 21.3446H24.5766V27.2555C24.5766 27.3928 24.5541 27.53 24.5202 27.6672C25.1299 28.1422 25.5364 28.8177 25.6606 29.5777V29.5882L25.288 29.6305C25.1864 28.9972 24.8589 28.4272 24.3621 28.005C24.3056 28.1 24.2266 28.2055 24.1363 28.29L22.5266 29.8621ZM24.5124 32.4122L24.3056 32.1637C24.8589 31.731 25.209 31.1188 25.3106 30.4432L25.6832 30.496C25.661 30.6473 25.6276 30.7953 25.5833 30.9393C25.4024 31.5286 25.0419 32.05 24.5428 32.4487L24.5124 32.4122ZM18.9634 33.5359C18.3085 32.892 17.823 32.0687 17.6085 31.1504L18.3763 31.5093L18.4437 31.6272L18.4905 31.6465L19.2131 32.8182L19.1341 33.652C19.0776 33.6009 19.0224 33.5486 18.9685 33.4951L18.9634 33.5359ZM19.1441 27.2978L19.0651 26.4639C18.3876 27.0867 17.8795 27.8889 17.631 28.8072L18.4214 28.4799L19.1441 27.2978ZM22.4864 34.9714C21.9783 34.9714 21.4815 34.8975 21.0185 34.7603L21.7186 34.2748L22.5266 34.2869L23.3346 34.2748L24.0346 34.7603C23.5717 34.8975 23.0749 34.9714 22.5667 34.9714C22.5533 34.9714 22.5399 34.9714 22.5266 34.9713C22.5132 34.9714 22.4998 34.9714 22.4864 34.9714ZM21.9896 33.1031C21.7637 33.0715 21.5379 33.0082 21.3234 32.9237L21.4589 32.5859C21.493 32.5991 21.5276 32.6116 21.5623 32.6234L21.5731 32.5965C21.8763 32.7099 22.1998 32.7709 22.5266 32.7764C22.8534 32.7709 23.1769 32.7099 23.4801 32.5965L23.4909 32.6234C23.5256 32.6116 23.5601 32.5991 23.5943 32.5859L23.7298 32.9237C23.5152 33.0082 23.2894 33.0715 23.0636 33.1032C22.8842 33.1305 22.7048 33.1424 22.5266 33.1394C22.3483 33.1424 22.169 33.1305 21.9896 33.1031ZM25.919 33.652L25.84 32.8182L26.5627 31.6465L26.6094 31.6272L26.6769 31.5093L27.4447 31.1504C27.2302 32.0687 26.7446 32.892 26.0897 33.5359L26.0847 33.4951C26.0308 33.5486 25.9756 33.6009 25.919 33.652ZM25.909 27.2978L25.9881 26.4639C26.6656 27.0867 27.1737 27.8889 27.4221 28.8072L26.6317 28.4799L25.909 27.2978Z" fill="white"/>
</svg>
